<svg xmlns="http://www.w3.org/2000/svg" xmlns:xlink="http://www.w3.org/1999/xlink" width="500" zoomAndPan="magnify" viewBox="0 0 375 374.999991" height="500" preserveAspectRatio="xMidYMid meet" version="1.0"><defs><g/><clipPath id="a1a8c613f9"><path d="M 31.75 150.6875 L 343.75 150.6875 L 343.75 217.4375 L 31.75 217.4375 Z M 31.75 150.6875 " clip-rule="nonzero"/></clipPath></defs><g clip-path="url(#a1a8c613f9)"><path fill="#000000" d="M 287.917969 162.550781 C 292.539062 162.320312 297.136719 161.96875 301.75 161.683594 C 310.996094 161.175781 320.144531 160.332031 329.339844 159.625 C 328.890625 161.984375 328.46875 164.4375 329.800781 166.464844 C 329.800781 166.464844 331.222656 166.28125 332.984375 165.941406 C 334.746094 165.621094 336.867188 165.238281 338.277344 164.984375 C 350.222656 168.464844 348.578125 176.652344 343.335938 183.242188 C 341.972656 184.632812 340.433594 186.203125 338.683594 187.808594 C 337.207031 187.839844 335.734375 187.875 334.273438 187.90625 C 327.628906 188.085938 321.082031 188.40625 314.480469 188.960938 C 307.917969 189.363281 301.328125 189.894531 294.652344 190.488281 C 281.324219 191.523438 277.375 192.695312 262.964844 192.875 C 242.75 192.558594 283.039062 191.304688 262.964844 192.875 C 286.804688 192.039062 248.050781 194.589844 272.300781 193.265625 C 278.371094 192.960938 274.707031 192.65625 280.738281 192.355469 C 286.785156 192.136719 292.800781 191.917969 298.785156 191.699219 C 304.792969 191.480469 310.738281 191.457031 316.695312 191.363281 C 322.671875 191.222656 328.578125 191.265625 334.511719 191.324219 C 330.042969 194.683594 324.625 197.527344 318.058594 198.476562 C 302.398438 199.5 286.957031 200.511719 271.648438 201.511719 C 271.578125 200.390625 259.679688 202.433594 249.160156 203.109375 C 238.644531 203.707031 228.285156 201.644531 217.855469 201.886719 C 196.988281 202.4375 155.449219 208.894531 155.164062 209.636719 C 155.058594 209.648438 154.953125 209.65625 154.855469 209.664062 C 154.953125 209.65625 155.058594 209.648438 155.164062 209.636719 C 154.902344 210.292969 155.101562 210.769531 157.777344 210.582031 C 155.101562 210.769531 154.902344 210.292969 155.164062 209.636719 C 197.472656 205.566406 227.363281 203.632812 269.90625 201.640625 C 236.914062 203.84375 214.390625 206.441406 181.9375 209.132812 C 149.492188 211.808594 116.863281 214.515625 83.207031 216.578125 C 80.34375 216.753906 74.601562 217.101562 71.730469 217.277344 C 60.132812 214.617188 48.605469 214.171875 37.15625 214.828125 C 39.820312 209.082031 27.960938 198.59375 50.972656 199.5 C 50.933594 198.386719 50.855469 196.152344 50.8125 195.039062 C 39.226562 192.917969 31.253906 188.054688 28.714844 183.050781 C 27.542969 180.558594 27.691406 177.96875 29.789062 175.664062 C 31.96875 173.34375 35.609375 171.324219 41.3125 169.878906 C 66.90625 163.941406 101.394531 166.324219 132.75 161.976562 C 155.582031 159.335938 178.382812 156.585938 201.3125 157.046875 C 232.875 157.957031 257.3125 153.9375 288.785156 154.9375 C 294.492188 154.84375 302.222656 153.335938 309.269531 152.214844 C 316.285156 151.023438 322.542969 150.0625 325.511719 151.34375 C 329.683594 152.363281 330.085938 154.699219 329.71875 157.417969 C 320.429688 158.535156 311.191406 159.8125 301.875 160.699219 C 297.226562 161.167969 292.597656 161.703125 287.953125 162.101562 C 283.3125 162.484375 278.679688 162.867188 274.058594 163.246094 " fill-opacity="1" fill-rule="nonzero"/></g><g fill="#ffffff" fill-opacity="1"><g transform="translate(75.633134, 199.868965)"><g><path d="M 41.175781 -44.5 L 41.175781 -44.5625 C 41.113281 -44.882812 40.921875 -44.949219 40.601562 -45.011719 C 40.34375 -45.074219 40.472656 -44.691406 40.214844 -44.691406 C 39.960938 -44.628906 39.257812 -44.757812 39 -44.757812 C 37.402344 -44.882812 35.804688 -44.820312 34.207031 -44.691406 C 33.824219 -44.691406 33.183594 -44.5625 32.863281 -44.628906 C 32.160156 -44.757812 32.160156 -45.011719 31.648438 -45.460938 C 30.882812 -46.164062 29.601562 -46.800781 28.515625 -46.675781 C 28.003906 -46.609375 27.683594 -46.546875 27.367188 -46.164062 C 27.171875 -45.90625 27.367188 -45.714844 27.367188 -45.714844 C 27.238281 -45.394531 26.980469 -44.949219 26.726562 -44.691406 C 26.214844 -44.054688 26.277344 -44.054688 25.382812 -43.796875 C 24.488281 -43.542969 23.847656 -43.351562 22.953125 -43.285156 C 21.738281 -43.222656 20.585938 -42.902344 19.375 -42.644531 C 18.542969 -42.519531 17.390625 -42.519531 16.625 -42.136719 C 16.175781 -41.941406 15.984375 -41.816406 15.792969 -41.367188 C 15.023438 -39.449219 17.648438 -38.617188 19.054688 -38.683594 C 20.078125 -38.746094 21.675781 -38.875 22.570312 -39.257812 C 23.210938 -39.511719 23.59375 -39.769531 24.230469 -39.898438 C 22.507812 -36.316406 20.972656 -32.671875 19.308594 -29.027344 C 17.710938 -25.445312 15.921875 -21.867188 14.578125 -18.160156 C 14.003906 -16.558594 13.617188 -14.898438 12.914062 -13.300781 C 12.148438 -11.699219 11.445312 -10.101562 10.871094 -8.441406 C 9.910156 -5.753906 8.3125 -2.683594 9.589844 0.128906 C 7.609375 0.765625 5.5 0.894531 3.390625 1.277344 C 2.621094 1.46875 1.535156 1.40625 0.832031 1.789062 C -0.511719 2.492188 -0.0625 4.09375 1.085938 4.796875 C 2.621094 5.691406 5.433594 5.113281 7.03125 4.601562 C 7.609375 4.410156 8.054688 4.09375 8.695312 3.964844 C 9.71875 3.835938 10.742188 3.582031 11.765625 3.453125 C 13.617188 3.195312 15.023438 2.75 16.816406 2.367188 L 20.140625 1.664062 C 20.652344 1.535156 21.035156 1.214844 21.355469 1.023438 C 21.675781 0.894531 21.996094 0.894531 22.507812 0.832031 C 23.210938 0.832031 25.445312 0.574219 25.445312 -0.449219 C 25.445312 -0.832031 25.253906 -1.023438 24.9375 -1.085938 C 24.679688 -1.152344 24.742188 -0.765625 24.488281 -0.765625 C 24.167969 -0.703125 23.59375 -0.832031 23.273438 -0.832031 C 20.269531 -1.023438 17.199219 -0.765625 14.195312 -0.449219 C 15.089844 -3.515625 16.113281 -6.585938 17.328125 -9.527344 C 18.09375 -11.507812 18.476562 -13.492188 19.308594 -15.410156 C 20.332031 -17.902344 21.355469 -20.394531 22.570312 -22.824219 C 23.65625 -25 24.230469 -27.238281 25.320312 -29.347656 C 26.46875 -31.714844 27.558594 -34.015625 28.773438 -36.316406 C 29.410156 -37.59375 30.371094 -39.066406 30.753906 -40.472656 C 30.816406 -40.855469 30.371094 -40.984375 30.816406 -41.367188 C 31.007812 -41.496094 31.839844 -41.429688 32.097656 -41.496094 C 33.246094 -41.6875 34.398438 -41.941406 35.550781 -42.199219 C 36.765625 -42.453125 37.019531 -42.964844 38.042969 -43.03125 C 38.746094 -43.09375 41.367188 -43.285156 41.175781 -44.5 Z M 24.9375 -32.480469 C 24.679688 -31.96875 24.425781 -31.519531 24.230469 -31.007812 C 24.425781 -31.839844 24.359375 -32.671875 24.679688 -33.503906 C 24.9375 -34.207031 25.765625 -34.910156 26.214844 -35.613281 C 25.832031 -34.527344 25.511719 -33.503906 24.9375 -32.480469 Z M 22.3125 -28.898438 L 21.417969 -27.492188 C 21.738281 -28.261719 21.929688 -29.027344 22.3125 -29.792969 C 22.441406 -30.050781 22.699219 -30.371094 22.953125 -30.691406 C 22.699219 -30.113281 22.632812 -29.476562 22.3125 -28.898438 Z M 22.3125 -28.898438 "/></g></g></g><g fill="#ffffff" fill-opacity="1"><g transform="translate(104.2771, 199.868965)"><g><path d="M 26.46875 -15.21875 C 26.152344 -16.75 25.253906 -15.730469 24.871094 -15.152344 C 23.976562 -14.066406 22.570312 -13.042969 21.484375 -12.019531 C 20.011719 -10.742188 18.542969 -9.398438 17.007812 -8.183594 C 16.238281 -7.542969 15.28125 -6.648438 14.320312 -6.328125 C 14.195312 -6.265625 13.746094 -6.203125 13.746094 -6.136719 L 13.683594 -6.203125 C 13.683594 -6.203125 13.617188 -7.226562 13.683594 -7.289062 C 13.746094 -8.121094 14.003906 -8.953125 14.257812 -9.71875 C 14.320312 -9.847656 15.023438 -12.019531 14.898438 -12.019531 L 14.578125 -11.636719 C 14.960938 -12.402344 15.472656 -13.171875 15.921875 -14.003906 C 14.898438 -13.042969 14.195312 -11.957031 13.683594 -10.613281 C 13.425781 -9.972656 12.722656 -8.824219 12.59375 -7.863281 C 12.722656 -9.269531 13.683594 -11.125 14.128906 -11.957031 C 14.769531 -13.300781 15.472656 -14.832031 16.304688 -16.113281 C 17.839844 -18.414062 21.164062 -20.523438 20.140625 -23.722656 C 19.246094 -26.726562 16.878906 -26.789062 15.023438 -25.0625 C 14.128906 -24.230469 6.523438 -14.515625 6.714844 -14.386719 C 6.714844 -14.386719 7.351562 -15.152344 8.183594 -16.238281 L 4.410156 -10.742188 C 4.347656 -10.742188 5.050781 -11.828125 4.988281 -11.890625 C 4.921875 -11.957031 4.476562 -11.507812 4.410156 -11.253906 C 4.539062 -12.59375 4.988281 -13.9375 5.113281 -15.28125 C 5.179688 -15.792969 5.113281 -16.175781 5.242188 -16.6875 C 5.5 -17.519531 5.753906 -18.414062 6.136719 -19.117188 C 6.394531 -19.628906 6.90625 -20.078125 7.03125 -20.585938 C 7.289062 -21.417969 7.226562 -21.738281 7.800781 -22.441406 C 8.3125 -23.082031 9.078125 -23.722656 9.527344 -24.296875 C 10.613281 -25.894531 8.757812 -26.980469 7.738281 -27.171875 C 6.90625 -27.300781 6.074219 -27.367188 5.308594 -26.917969 C 4.476562 -26.40625 4.667969 -25.957031 4.476562 -25.253906 C 4.285156 -24.359375 3.644531 -23.335938 3.324219 -22.507812 C 2.8125 -21.164062 2.367188 -19.820312 1.917969 -18.476562 C 1.40625 -17.136719 0.894531 -15.855469 0.511719 -14.515625 C 0.191406 -13.425781 0.253906 -12.402344 0.128906 -11.382812 C 0 -10.230469 -0.191406 -9.460938 0.382812 -8.441406 C 1.023438 -7.351562 2.75 -5.691406 3.898438 -7.097656 L 4.15625 -6.585938 C 5.242188 -8.953125 6.90625 -11.0625 8.246094 -13.363281 C 8.824219 -14.386719 9.847656 -15.089844 10.675781 -16.175781 C 11.828125 -17.710938 12.851562 -19.246094 14.128906 -20.714844 C 13.9375 -20.394531 13.105469 -18.925781 13.171875 -18.863281 C 13.300781 -18.925781 13.363281 -19.054688 13.492188 -19.179688 L 12.59375 -17.390625 C 12.53125 -17.453125 12.851562 -17.902344 12.722656 -17.902344 C 12.277344 -18.03125 10.933594 -14.449219 10.804688 -14.128906 C 10.359375 -12.722656 10.292969 -11.445312 10.167969 -9.972656 C 10.101562 -9.269531 9.972656 -8.566406 9.972656 -7.863281 C 9.972656 -7.160156 10.039062 -6.457031 10.359375 -5.753906 C 10.550781 -5.371094 10.804688 -4.859375 11.125 -4.539062 C 11.1875 -4.539062 11.890625 -3.898438 11.574219 -4.410156 L 11.957031 -4.027344 L 11.765625 -4.15625 C 11.699219 -3.835938 14.066406 -2.558594 14.449219 -2.429688 C 16.238281 -1.855469 18.160156 -3.898438 19.308594 -5.113281 C 20.84375 -6.777344 22.121094 -8.695312 23.527344 -10.484375 C 24.296875 -11.507812 26.726562 -13.683594 26.46875 -15.21875 Z M 26.46875 -15.21875 "/></g></g></g><g fill="#ffffff" fill-opacity="1"><g transform="translate(126.079764, 199.868965)"><g><path d="M 25.957031 -33.246094 C 25.894531 -34.144531 24.9375 -33.4375 24.425781 -33.4375 C 21.867188 -33.3125 19.308594 -33.3125 16.816406 -33.183594 C 16.816406 -33.246094 16.945312 -33.503906 17.136719 -33.886719 C 16.878906 -33.4375 16.6875 -33.183594 16.496094 -33.183594 C 18.414062 -37.082031 20.460938 -40.984375 22.890625 -44.5625 C 22.824219 -44.4375 21.867188 -42.839844 21.929688 -42.839844 C 22.121094 -42.773438 24.488281 -46.035156 24.550781 -46.484375 C 24.550781 -46.738281 23.976562 -46.097656 23.976562 -46.164062 C 24.359375 -46.546875 25 -46.867188 25.191406 -47.378906 C 25.640625 -48.65625 24.296875 -49.230469 23.335938 -49.421875 C 21.355469 -49.808594 19.117188 -49.550781 17.839844 -47.890625 C 16.625 -46.417969 15.730469 -44.691406 14.960938 -42.964844 C 14.578125 -42.199219 14.066406 -42.007812 13.554688 -41.304688 C 12.789062 -40.214844 12.277344 -38.9375 11.699219 -37.722656 C 11.1875 -36.636719 10.675781 -35.484375 10.230469 -34.335938 C 9.972656 -33.757812 9.972656 -33.3125 9.398438 -33.121094 C 8.824219 -32.863281 7.738281 -33.054688 7.097656 -32.992188 C 4.601562 -32.671875 2.175781 -32.800781 -0.320312 -32.542969 C -1.597656 -32.480469 -2.878906 -32.480469 -4.09375 -32.03125 C -4.347656 -31.96875 -5.753906 -31.648438 -5.882812 -31.457031 C -6.265625 -30.753906 -4.730469 -30.691406 -4.410156 -30.625 C -1.980469 -30.304688 1.085938 -30.050781 3.515625 -30.5 C 5.179688 -30.816406 6.90625 -30.691406 8.695312 -30.816406 C 7.800781 -28.898438 7.097656 -26.855469 6.394531 -24.808594 L 5.625 -22.570312 C 5.371094 -21.867188 4.539062 -20.523438 4.539062 -19.757812 C 4.539062 -19.628906 4.730469 -19.949219 4.859375 -20.269531 C 4.539062 -19.308594 4.15625 -18.351562 3.898438 -17.390625 C 3.898438 -17.453125 4.09375 -18.222656 4.027344 -18.222656 C 3.707031 -18.222656 2.429688 -14.320312 2.300781 -14.003906 C 1.664062 -12.085938 0.960938 -10.167969 0.640625 -8.121094 C 0.253906 -6.074219 -0.253906 -4.09375 -0.703125 -2.109375 C -0.960938 -1.085938 -1.214844 -0.128906 -1.34375 0.894531 C -1.46875 1.40625 -1.597656 1.980469 -1.597656 2.492188 C -1.597656 2.621094 -1.597656 3.453125 -1.46875 3.195312 L -1.597656 4.476562 L -1.597656 3.515625 C -1.980469 3.964844 -1.597656 6.011719 -1.535156 6.394531 C -1.277344 7.671875 -0.640625 8.824219 0.511719 9.589844 C 1.535156 10.359375 3.132812 11.0625 4.347656 10.484375 C 5.945312 9.71875 7.289062 7.929688 8.3125 6.648438 C 10.550781 4.027344 12.59375 1.277344 14.640625 -1.46875 C 16.496094 -4.027344 18.414062 -6.523438 20.011719 -9.207031 C 20.90625 -10.742188 22.632812 -12.148438 23.210938 -13.875 C 23.527344 -14.707031 23.335938 -15.730469 22.3125 -15.535156 C 21.484375 -15.34375 20.332031 -13.105469 19.820312 -12.46875 C 17.519531 -9.589844 15.34375 -6.648438 13.042969 -3.773438 L 9.335938 0.765625 C 8.757812 1.40625 8.183594 2.109375 7.542969 2.75 C 7.289062 3.070312 5.691406 4.347656 5.753906 4.730469 C 5.753906 4.859375 6.457031 4.285156 6.714844 4.09375 C 6.394531 4.476562 6.011719 4.796875 5.691406 5.113281 C 5.753906 5.050781 4.410156 5.816406 4.21875 5.691406 C 3.003906 5.179688 4.09375 1.46875 4.285156 0.574219 C 5.433594 -4.601562 7.160156 -9.847656 8.886719 -14.832031 C 9.910156 -17.582031 10.933594 -20.203125 12.085938 -22.890625 C 12.660156 -24.230469 13.234375 -25.640625 13.875 -26.980469 L 14.769531 -29.410156 L 14.066406 -28.003906 C 14.515625 -29.15625 15.152344 -30.882812 15.535156 -30.945312 L 15.34375 -30.5625 C 15.472656 -30.753906 15.601562 -30.882812 15.730469 -30.945312 C 16.433594 -31.394531 18.222656 -30.945312 19.054688 -30.945312 C 19.628906 -30.945312 20.332031 -30.882812 20.90625 -31.074219 C 21.292969 -31.203125 21.164062 -31.394531 21.609375 -31.519531 C 22.378906 -31.648438 23.335938 -31.136719 24.167969 -31.394531 C 24.9375 -31.585938 26.023438 -32.289062 25.957031 -33.183594 Z M 13.808594 -29.539062 C 10.933594 -23.464844 8.757812 -16.945312 6.457031 -10.613281 C 5.371094 -7.738281 4.347656 -4.730469 3.644531 -1.726562 L 3.324219 -0.511719 C 3.773438 -2.8125 4.285156 -5.050781 4.921875 -7.289062 C 6.328125 -12.210938 8.121094 -17.070312 10.230469 -21.738281 C 13.808594 -29.730469 17.007812 -38.296875 22.121094 -45.523438 C 18.667969 -40.601562 16.367188 -34.972656 13.808594 -29.539062 Z M 18.03125 -35.867188 L 19.566406 -38.808594 C 19.246094 -38.746094 18.667969 -37.339844 18.03125 -35.867188 Z M 11.445312 -21.929688 C 10.996094 -20.714844 10.484375 -19.566406 9.972656 -18.414062 C 10.484375 -19.628906 10.933594 -20.90625 11.507812 -22.1875 C 11.445312 -22.058594 11.445312 -21.996094 11.445312 -21.929688 Z M 17.199219 -34.015625 L 17.839844 -35.421875 C 17.648438 -34.910156 17.390625 -34.398438 17.199219 -34.015625 Z M 3.261719 6.265625 C 3.195312 6.265625 3.132812 6.203125 3.070312 6.136719 Z M 3.261719 6.265625 "/></g></g></g><g fill="#ffffff" fill-opacity="1"><g transform="translate(145.708554, 199.868965)"><g><path d="M 24.488281 -15.792969 C 24.488281 -15.730469 24.488281 -15.730469 24.425781 -15.792969 L 24.425781 -15.855469 C 23.402344 -17.582031 22.058594 -15.21875 21.484375 -14.386719 C 20.394531 -12.914062 19.375 -11.507812 18.222656 -10.167969 C 17.261719 -9.015625 16.238281 -7.863281 15.472656 -6.648438 C 15.472656 -6.523438 15.34375 -6.203125 15.34375 -6.203125 C 15.089844 -5.816406 14.707031 -5.5 14.386719 -5.113281 C 13.808594 -4.539062 13.234375 -3.898438 12.59375 -3.324219 C 11.636719 -2.429688 6.265625 2.621094 5.5625 -0.640625 C 5.179688 -2.238281 5.691406 -4.21875 6.011719 -5.753906 C 6.203125 -6.585938 6.394531 -7.351562 6.523438 -8.183594 C 6.648438 -8.824219 6.457031 -9.460938 6.777344 -10.101562 C 6.96875 -10.484375 7.03125 -10.421875 7.480469 -10.550781 L 8.566406 -10.933594 C 9.269531 -11.1875 9.972656 -11.445312 10.613281 -11.828125 C 11.574219 -12.402344 12.46875 -13.105469 13.300781 -13.808594 C 15.28125 -15.472656 17.390625 -17.453125 18.222656 -19.949219 C 18.667969 -21.355469 18.734375 -22.890625 17.839844 -24.105469 C 17.007812 -25.191406 15.601562 -25.765625 14.320312 -26.023438 C 10.871094 -26.660156 8.246094 -24.679688 6.265625 -22.058594 C 3.835938 -19.054688 2.109375 -15.34375 1.277344 -11.574219 C 0.832031 -9.71875 0.574219 -7.863281 0.253906 -5.945312 C -0.0625 -4.027344 -0.253906 -2.238281 0.765625 -0.449219 C 0.703125 -1.085938 0.574219 -1.664062 0.574219 -2.238281 C 0.574219 -2.558594 0.703125 -2.878906 0.703125 -3.132812 C 0.703125 -3.261719 0.574219 -3.644531 0.574219 -3.835938 C 0.574219 -4.410156 0.703125 -4.859375 0.832031 -5.433594 C 0.894531 -6.011719 0.832031 -6.585938 0.894531 -7.160156 C 0.960938 -7.800781 1.214844 -8.3125 1.46875 -8.886719 C 1.664062 -9.398438 1.726562 -9.847656 1.917969 -10.359375 C 2.109375 -10.804688 2.238281 -11.316406 2.429688 -11.828125 C 2.492188 -12.148438 2.8125 -12.53125 3.003906 -12.914062 C 2.8125 -12.339844 2.429688 -11.828125 2.300781 -11.316406 C 2.109375 -10.550781 2.238281 -9.71875 2.175781 -8.953125 C 2.046875 -8.121094 1.789062 -7.289062 1.664062 -6.394531 C 1.535156 -5.5625 1.152344 -4.796875 1.023438 -3.964844 C 0.894531 -3.195312 0.640625 -2.621094 0.703125 -1.855469 C 0.703125 -1.40625 0.765625 -0.960938 0.832031 -0.574219 C 0.894531 -0.0625 1.214844 0.253906 1.535156 0.640625 C 2.621094 1.917969 4.09375 2.941406 5.753906 3.390625 C 6.90625 3.707031 7.929688 3.644531 9.015625 3.070312 C 10.550781 2.238281 11.890625 0.960938 13.042969 -0.253906 C 14.128906 -1.46875 14.960938 -2.8125 15.921875 -4.09375 C 16.816406 -5.242188 17.902344 -6.328125 18.796875 -7.480469 L 22.25 -11.957031 L 24.230469 -14.578125 C 24.550781 -14.960938 24.742188 -15.28125 24.488281 -15.792969 Z M 8.632812 -15.089844 C 8.695312 -15.21875 8.695312 -15.28125 8.695312 -15.28125 C 9.65625 -17.328125 10.359375 -19.5 11.699219 -21.484375 L 12.851562 -23.015625 C 13.105469 -23.335938 13.554688 -23.914062 14.003906 -24.039062 C 14.960938 -24.230469 15.21875 -22.570312 15.152344 -21.929688 L 14.898438 -20.585938 C 14.832031 -20.203125 14.960938 -19.949219 14.898438 -19.628906 C 14.769531 -19.246094 14.449219 -19.054688 14.257812 -18.734375 L 13.171875 -17.328125 C 11.699219 -15.601562 9.847656 -14.128906 7.800781 -13.042969 C 8.121094 -13.746094 8.3125 -14.449219 8.632812 -15.089844 Z M 8.632812 -15.089844 "/></g></g></g><g fill="#ffffff" fill-opacity="1"><g transform="translate(165.593097, 199.868965)"><g><path d="M 25.574219 -16.304688 C 24.679688 -15.34375 24.105469 -13.746094 23.402344 -12.59375 C 22.3125 -10.742188 21.226562 -8.953125 20.078125 -7.160156 C 17.902344 -3.707031 15.730469 -0.191406 13.105469 2.941406 C 12.019531 4.285156 9.71875 7.542969 7.542969 7.289062 C 5.945312 7.03125 5.945312 4.285156 5.945312 3.070312 C 5.945312 2.046875 6.011719 1.023438 6.136719 0.0625 C 6.203125 -0.511719 6.714844 -2.429688 6.394531 -2.941406 L 5.882812 -1.023438 C 5.945312 -1.789062 6.074219 -2.621094 6.265625 -3.390625 C 6.203125 -3.515625 6.777344 -5.308594 6.90625 -5.882812 C 7.226562 -7.160156 7.542969 -8.441406 7.929688 -9.71875 C 8.246094 -10.996094 8.566406 -12.210938 8.953125 -13.425781 C 9.269531 -14.578125 9.71875 -15.152344 10.421875 -16.046875 C 13.300781 -19.628906 15.921875 -23.527344 18.351562 -27.429688 C 19.246094 -28.898438 19.820312 -30.179688 20.90625 -31.394531 C 22.507812 -33.054688 23.59375 -35.550781 24.617188 -37.59375 C 26.34375 -40.921875 28.644531 -45.523438 28.261719 -49.421875 L 28.261719 -49.742188 L 28.195312 -49.808594 C 27.8125 -52.300781 25.511719 -55.242188 22.699219 -54.347656 C 21.226562 -53.898438 20.140625 -52.363281 19.246094 -51.277344 L 17.773438 -49.296875 C 17.453125 -48.914062 17.007812 -47.953125 16.6875 -47.441406 L 16.75 -47.503906 L 14.707031 -43.988281 L 15.21875 -45.074219 C 14.898438 -45.140625 13.492188 -42.390625 13.300781 -42.070312 C 12.59375 -40.855469 11.957031 -39.640625 11.382812 -38.425781 C 10.101562 -35.867188 8.824219 -33.246094 7.992188 -30.5 C 7.097656 -27.75 6.074219 -25.0625 5.113281 -22.3125 C 4.601562 -20.84375 4.09375 -19.308594 3.644531 -17.839844 C 3.261719 -16.625 2.367188 -14.640625 2.558594 -13.363281 L 2.75 -13.363281 C 2.558594 -12.914062 2.429688 -12.46875 2.300781 -12.019531 C 2.367188 -12.402344 2.367188 -12.851562 2.429688 -12.980469 C 2.109375 -12.53125 2.175781 -10.996094 2.109375 -10.871094 C 1.277344 -7.417969 0.320312 -3.964844 0.0625 -0.382812 C -0.128906 3.003906 -0.128906 7.480469 2.558594 9.972656 C 5.5625 12.722656 9.015625 10.871094 11.507812 8.503906 C 14.449219 5.625 16.945312 2.238281 19.246094 -1.085938 C 21.355469 -4.15625 23.015625 -7.417969 24.9375 -10.484375 C 25.703125 -11.765625 26.535156 -13.042969 26.917969 -14.449219 C 27.171875 -15.472656 27.046875 -17.839844 25.574219 -16.304688 Z M 17.582031 -39.195312 C 18.863281 -42.261719 20.140625 -45.394531 21.929688 -48.273438 C 22.378906 -48.976562 25.253906 -52.8125 25.128906 -49.421875 L 25.128906 -49.359375 C 25 -45.777344 22.699219 -42.007812 21.164062 -38.9375 L 18.476562 -33.949219 C 17.582031 -32.417969 16.046875 -30.5 15.535156 -28.835938 C 15.921875 -29.859375 17.070312 -31.328125 17.648438 -32.289062 C 18.605469 -33.886719 19.4375 -35.484375 20.332031 -37.082031 C 21.800781 -39.898438 23.402344 -42.839844 24.488281 -45.90625 C 21.609375 -37.339844 16.238281 -29.347656 11.507812 -21.738281 C 13.363281 -27.367188 15.21875 -33.503906 17.582031 -39.195312 Z M 15.535156 -43.667969 C 16.175781 -44.882812 17.328125 -45.90625 17.964844 -47.058594 C 16.625 -44.371094 14.960938 -41.941406 13.554688 -39.386719 C 13.554688 -39.449219 13.554688 -39.578125 13.617188 -39.640625 C 14.195312 -41.046875 14.832031 -42.328125 15.535156 -43.667969 Z M 3.453125 -10.613281 C 3.390625 -10.484375 3.390625 -10.421875 3.390625 -10.421875 C 2.621094 -8.632812 2.558594 -6.203125 2.175781 -4.285156 C 2.109375 -3.835938 1.980469 -3.453125 1.980469 -3.003906 L 1.980469 -3.195312 L 1.789062 -1.152344 C 1.917969 -3.453125 2.175781 -5.816406 2.621094 -8.054688 L 2.621094 -7.992188 C 2.8125 -9.460938 3.132812 -10.804688 3.390625 -10.804688 C 3.515625 -10.871094 3.515625 -10.675781 3.453125 -10.613281 Z M 3.453125 -10.613281 "/></g></g></g><g fill="#ffffff" fill-opacity="1"><g transform="translate(188.226946, 199.868965)"><g><path d="M 16.75 -15.730469 C 16.625 -16.558594 15.730469 -16.304688 15.28125 -15.984375 C 14.707031 -15.601562 11.507812 -11.382812 11.765625 -11.0625 C 11.957031 -11.0625 12.085938 -11.0625 12.210938 -11.1875 C 11.316406 -10.101562 9.65625 -8.886719 8.441406 -7.929688 C 7.738281 -7.351562 6.011719 -5.753906 4.988281 -6.265625 C 2.8125 -7.351562 7.226562 -15.023438 7.03125 -15.089844 C 6.839844 -15.152344 5.242188 -11.574219 4.921875 -10.742188 C 5.691406 -12.980469 6.714844 -15.21875 7.929688 -17.199219 C 7.863281 -17.007812 7.671875 -16.6875 7.800781 -16.6875 C 7.929688 -16.625 8.886719 -17.964844 8.695312 -18.09375 C 8.632812 -18.09375 8.503906 -18.09375 8.441406 -18.03125 C 8.632812 -18.222656 8.953125 -18.285156 8.953125 -18.667969 C 8.953125 -19.308594 7.480469 -19.949219 6.96875 -20.140625 C 5.753906 -20.652344 4.539062 -20.78125 3.582031 -20.140625 C 2.300781 -19.375 2.046875 -17.839844 1.535156 -16.496094 C 1.40625 -16.113281 0.191406 -11.574219 0.449219 -11.507812 C 0.574219 -11.574219 0.574219 -11.636719 0.640625 -11.765625 L 0.449219 -10.613281 C 0.382812 -10.613281 0.511719 -10.933594 0.382812 -10.933594 C -0.128906 -10.933594 0 -8.632812 0.0625 -8.3125 C 0.320312 -7.160156 1.214844 -6.328125 1.917969 -5.371094 C 2.300781 -4.796875 2.683594 -4.21875 3.261719 -3.835938 C 4.027344 -3.261719 3.515625 -3.835938 4.027344 -3.582031 L 3.898438 -3.582031 C 3.835938 -3.195312 6.265625 -2.558594 6.777344 -2.621094 C 9.015625 -3.132812 10.613281 -5.882812 11.890625 -7.609375 C 13.105469 -9.144531 14.128906 -10.675781 15.21875 -12.277344 C 15.855469 -13.105469 17.007812 -14.515625 16.75 -15.730469 Z M 5.5625 -23.785156 C 5.691406 -23.59375 5.5 -23.335938 5.945312 -23.082031 C 6.394531 -22.890625 6.648438 -23.144531 7.03125 -23.273438 C 7.800781 -23.59375 8.375 -24.425781 8.953125 -24.9375 C 9.144531 -25.0625 8.757812 -25 8.757812 -25 C 9.589844 -25.765625 8.886719 -24.871094 9.65625 -25.320312 C 10.421875 -25.832031 10.550781 -26.660156 11.1875 -27.367188 C 10.421875 -27.046875 9.847656 -26.597656 9.335938 -25.957031 C 8.695312 -25.128906 8.246094 -24.742188 7.542969 -24.296875 C 8.3125 -24.871094 8.695312 -25.445312 9.335938 -26.46875 C 9.527344 -26.660156 9.71875 -26.789062 9.972656 -26.917969 C 9.78125 -27.109375 9.78125 -27.300781 10.039062 -27.492188 C 10.230469 -27.8125 10.613281 -27.941406 10.804688 -28.261719 C 11.125 -28.707031 11.0625 -29.285156 11.445312 -29.730469 C 11.765625 -29.988281 12.210938 -30.179688 12.46875 -30.433594 C 13.042969 -30.945312 13.683594 -31.90625 13.425781 -32.734375 C 13.171875 -33.503906 12.53125 -34.460938 11.828125 -34.910156 C 10.996094 -35.359375 9.847656 -35.550781 8.953125 -35.164062 C 8.757812 -35.101562 7.992188 -34.910156 8.246094 -34.652344 C 8.3125 -34.527344 8.375 -34.527344 8.503906 -34.527344 C 7.929688 -34.078125 6.96875 -33.3125 8.3125 -32.800781 C 8.183594 -32.671875 8.3125 -32.097656 8.3125 -32.03125 C 8.246094 -31.585938 7.351562 -29.21875 6.777344 -28.070312 L 7.542969 -29.21875 C 7.097656 -28.261719 6.585938 -27.367188 6.011719 -26.597656 C 6.394531 -27.429688 5.625 -26.46875 5.625 -26.277344 C 4.921875 -26.597656 5.113281 -24.617188 5.179688 -24.425781 C 5.179688 -24.359375 5.5625 -23.785156 5.5625 -23.785156 Z M 4.347656 -8.566406 L 4.347656 -8.503906 L 4.21875 -8.121094 L 4.347656 -8.632812 C 4.410156 -8.695312 4.410156 -8.695312 4.347656 -8.566406 Z M 6.457031 -27.558594 C 6.457031 -27.558594 6.585938 -27.683594 6.714844 -27.941406 Z M 5.816406 -26.34375 C 5.816406 -26.277344 5.816406 -26.277344 5.753906 -26.214844 C 5.753906 -26.214844 5.753906 -26.277344 5.691406 -26.277344 C 5.753906 -26.277344 5.753906 -26.277344 5.816406 -26.34375 Z M 5.816406 -26.34375 "/></g></g></g><g fill="#ffffff" fill-opacity="1"><g transform="translate(200.311116, 199.868965)"><g><path d="M 25.957031 -33.246094 C 25.894531 -34.144531 24.9375 -33.4375 24.425781 -33.4375 C 21.867188 -33.3125 19.308594 -33.3125 16.816406 -33.183594 C 16.816406 -33.246094 16.945312 -33.503906 17.136719 -33.886719 C 16.878906 -33.4375 16.6875 -33.183594 16.496094 -33.183594 C 18.414062 -37.082031 20.460938 -40.984375 22.890625 -44.5625 C 22.824219 -44.4375 21.867188 -42.839844 21.929688 -42.839844 C 22.121094 -42.773438 24.488281 -46.035156 24.550781 -46.484375 C 24.550781 -46.738281 23.976562 -46.097656 23.976562 -46.164062 C 24.359375 -46.546875 25 -46.867188 25.191406 -47.378906 C 25.640625 -48.65625 24.296875 -49.230469 23.335938 -49.421875 C 21.355469 -49.808594 19.117188 -49.550781 17.839844 -47.890625 C 16.625 -46.417969 15.730469 -44.691406 14.960938 -42.964844 C 14.578125 -42.199219 14.066406 -42.007812 13.554688 -41.304688 C 12.789062 -40.214844 12.277344 -38.9375 11.699219 -37.722656 C 11.1875 -36.636719 10.675781 -35.484375 10.230469 -34.335938 C 9.972656 -33.757812 9.972656 -33.3125 9.398438 -33.121094 C 8.824219 -32.863281 7.738281 -33.054688 7.097656 -32.992188 C 4.601562 -32.671875 2.175781 -32.800781 -0.320312 -32.542969 C -1.597656 -32.480469 -2.878906 -32.480469 -4.09375 -32.03125 C -4.347656 -31.96875 -5.753906 -31.648438 -5.882812 -31.457031 C -6.265625 -30.753906 -4.730469 -30.691406 -4.410156 -30.625 C -1.980469 -30.304688 1.085938 -30.050781 3.515625 -30.5 C 5.179688 -30.816406 6.90625 -30.691406 8.695312 -30.816406 C 7.800781 -28.898438 7.097656 -26.855469 6.394531 -24.808594 L 5.625 -22.570312 C 5.371094 -21.867188 4.539062 -20.523438 4.539062 -19.757812 C 4.539062 -19.628906 4.730469 -19.949219 4.859375 -20.269531 C 4.539062 -19.308594 4.15625 -18.351562 3.898438 -17.390625 C 3.898438 -17.453125 4.09375 -18.222656 4.027344 -18.222656 C 3.707031 -18.222656 2.429688 -14.320312 2.300781 -14.003906 C 1.664062 -12.085938 0.960938 -10.167969 0.640625 -8.121094 C 0.253906 -6.074219 -0.253906 -4.09375 -0.703125 -2.109375 C -0.960938 -1.085938 -1.214844 -0.128906 -1.34375 0.894531 C -1.46875 1.40625 -1.597656 1.980469 -1.597656 2.492188 C -1.597656 2.621094 -1.597656 3.453125 -1.46875 3.195312 L -1.597656 4.476562 L -1.597656 3.515625 C -1.980469 3.964844 -1.597656 6.011719 -1.535156 6.394531 C -1.277344 7.671875 -0.640625 8.824219 0.511719 9.589844 C 1.535156 10.359375 3.132812 11.0625 4.347656 10.484375 C 5.945312 9.71875 7.289062 7.929688 8.3125 6.648438 C 10.550781 4.027344 12.59375 1.277344 14.640625 -1.46875 C 16.496094 -4.027344 18.414062 -6.523438 20.011719 -9.207031 C 20.90625 -10.742188 22.632812 -12.148438 23.210938 -13.875 C 23.527344 -14.707031 23.335938 -15.730469 22.3125 -15.535156 C 21.484375 -15.34375 20.332031 -13.105469 19.820312 -12.46875 C 17.519531 -9.589844 15.34375 -6.648438 13.042969 -3.773438 L 9.335938 0.765625 C 8.757812 1.40625 8.183594 2.109375 7.542969 2.75 C 7.289062 3.070312 5.691406 4.347656 5.753906 4.730469 C 5.753906 4.859375 6.457031 4.285156 6.714844 4.09375 C 6.394531 4.476562 6.011719 4.796875 5.691406 5.113281 C 5.753906 5.050781 4.410156 5.816406 4.21875 5.691406 C 3.003906 5.179688 4.09375 1.46875 4.285156 0.574219 C 5.433594 -4.601562 7.160156 -9.847656 8.886719 -14.832031 C 9.910156 -17.582031 10.933594 -20.203125 12.085938 -22.890625 C 12.660156 -24.230469 13.234375 -25.640625 13.875 -26.980469 L 14.769531 -29.410156 L 14.066406 -28.003906 C 14.515625 -29.15625 15.152344 -30.882812 15.535156 -30.945312 L 15.34375 -30.5625 C 15.472656 -30.753906 15.601562 -30.882812 15.730469 -30.945312 C 16.433594 -31.394531 18.222656 -30.945312 19.054688 -30.945312 C 19.628906 -30.945312 20.332031 -30.882812 20.90625 -31.074219 C 21.292969 -31.203125 21.164062 -31.394531 21.609375 -31.519531 C 22.378906 -31.648438 23.335938 -31.136719 24.167969 -31.394531 C 24.9375 -31.585938 26.023438 -32.289062 25.957031 -33.183594 Z M 13.808594 -29.539062 C 10.933594 -23.464844 8.757812 -16.945312 6.457031 -10.613281 C 5.371094 -7.738281 4.347656 -4.730469 3.644531 -1.726562 L 3.324219 -0.511719 C 3.773438 -2.8125 4.285156 -5.050781 4.921875 -7.289062 C 6.328125 -12.210938 8.121094 -17.070312 10.230469 -21.738281 C 13.808594 -29.730469 17.007812 -38.296875 22.121094 -45.523438 C 18.667969 -40.601562 16.367188 -34.972656 13.808594 -29.539062 Z M 18.03125 -35.867188 L 19.566406 -38.808594 C 19.246094 -38.746094 18.667969 -37.339844 18.03125 -35.867188 Z M 11.445312 -21.929688 C 10.996094 -20.714844 10.484375 -19.566406 9.972656 -18.414062 C 10.484375 -19.628906 10.933594 -20.90625 11.507812 -22.1875 C 11.445312 -22.058594 11.445312 -21.996094 11.445312 -21.929688 Z M 17.199219 -34.015625 L 17.839844 -35.421875 C 17.648438 -34.910156 17.390625 -34.398438 17.199219 -34.015625 Z M 3.261719 6.265625 C 3.195312 6.265625 3.132812 6.203125 3.070312 6.136719 Z M 3.261719 6.265625 "/></g></g></g><g fill="#ffffff" fill-opacity="1"><g transform="translate(219.939907, 199.868965)"><g><path d="M 32.542969 -15.410156 C 32.480469 -16.816406 31.328125 -15.601562 30.945312 -15.089844 C 30.113281 -13.875 29.347656 -12.59375 28.578125 -11.382812 C 26.855469 -8.757812 25.128906 -6.136719 23.144531 -3.644531 C 16.558594 4.476562 21.164062 -9.972656 20.652344 -9.847656 C 20.394531 -9.78125 20.203125 -8.824219 20.140625 -8.632812 C 20.652344 -10.933594 21.609375 -13.683594 22.824219 -15.921875 C 23.527344 -17.328125 24.359375 -18.476562 23.082031 -20.011719 C 20.714844 -22.890625 17.964844 -20.269531 16.433594 -18.285156 C 15.792969 -20.714844 14.515625 -24.296875 11.382812 -24.296875 C 9.972656 -24.296875 9.144531 -23.59375 8.183594 -22.761719 C 7.609375 -22.378906 7.160156 -22.3125 6.648438 -21.867188 C 5.816406 -21.292969 5.242188 -20.394531 4.667969 -19.628906 C 2.492188 -16.433594 0.960938 -12.402344 0.253906 -8.695312 C -0.0625 -6.90625 -0.191406 -4.921875 0.320312 -3.132812 C 0.640625 -2.109375 1.789062 0.191406 3.261719 0 C 3.324219 0 3.195312 -0.0625 3.003906 -0.191406 C 3.898438 0.0625 4.921875 -0.0625 5.691406 -0.574219 C 5.753906 -0.449219 4.988281 -0.128906 4.988281 -0.128906 C 5.691406 0.960938 10.933594 -5.371094 11.316406 -5.945312 C 12.148438 -7.097656 12.722656 -8.3125 13.492188 -9.527344 C 14.066406 -10.421875 14.960938 -11.574219 15.601562 -12.53125 C 15.535156 -12.085938 15.535156 -11.507812 15.535156 -11.507812 C 14.386719 -7.863281 13.300781 -3.898438 14.832031 -0.128906 C 15.535156 1.789062 17.261719 3.582031 19.4375 3.195312 C 21.355469 2.878906 22.953125 1.023438 24.105469 -0.449219 C 25.511719 -2.109375 26.726562 -3.964844 27.941406 -5.882812 C 28.964844 -7.609375 29.921875 -9.335938 30.753906 -11.253906 C 31.265625 -12.46875 32.671875 -13.9375 32.542969 -15.410156 Z M 14.195312 -14.960938 C 13.875 -14.515625 13.554688 -14.066406 13.300781 -13.617188 L 11.636719 -11.253906 C 10.550781 -9.65625 9.398438 -8.121094 8.183594 -6.648438 C 7.863281 -6.203125 6.328125 -4.21875 5.691406 -4.410156 C 4.730469 -4.730469 5.753906 -8.054688 5.882812 -8.566406 C 6.074219 -9.460938 9.460938 -19.308594 10.359375 -19.5 C 9.207031 -19.566406 5.5 -7.992188 5.308594 -7.03125 C 5.816406 -10.167969 6.96875 -13.234375 8.246094 -16.113281 C 8.953125 -17.582031 10.550781 -21.484375 12.660156 -21.484375 C 13.808594 -21.484375 14.066406 -19.117188 14.257812 -18.351562 C 14.195312 -18.476562 13.617188 -20.332031 13.554688 -20.269531 C 13.234375 -20.011719 14.515625 -16.496094 14.515625 -15.984375 C 14.515625 -15.472656 14.515625 -15.472656 14.195312 -14.960938 Z M 15.664062 -11.828125 C 15.664062 -11.828125 15.855469 -12.722656 15.921875 -12.914062 L 16.238281 -13.363281 Z M 14.707031 -15.792969 L 14.707031 -16.433594 C 14.898438 -16.175781 14.898438 -15.984375 14.707031 -15.792969 Z M 14.707031 -15.792969 "/></g></g></g><g fill="#ffffff" fill-opacity="1"><g transform="translate(247.816626, 199.868965)"><g><path d="M 25.574219 -16.304688 C 24.679688 -15.34375 24.105469 -13.746094 23.402344 -12.59375 C 22.3125 -10.742188 21.226562 -8.953125 20.078125 -7.160156 C 17.902344 -3.707031 15.730469 -0.191406 13.105469 2.941406 C 12.019531 4.285156 9.71875 7.542969 7.542969 7.289062 C 5.945312 7.03125 5.945312 4.285156 5.945312 3.070312 C 5.945312 2.046875 6.011719 1.023438 6.136719 0.0625 C 6.203125 -0.511719 6.714844 -2.429688 6.394531 -2.941406 L 5.882812 -1.023438 C 5.945312 -1.789062 6.074219 -2.621094 6.265625 -3.390625 C 6.203125 -3.515625 6.777344 -5.308594 6.90625 -5.882812 C 7.226562 -7.160156 7.542969 -8.441406 7.929688 -9.71875 C 8.246094 -10.996094 8.566406 -12.210938 8.953125 -13.425781 C 9.269531 -14.578125 9.71875 -15.152344 10.421875 -16.046875 C 13.300781 -19.628906 15.921875 -23.527344 18.351562 -27.429688 C 19.246094 -28.898438 19.820312 -30.179688 20.90625 -31.394531 C 22.507812 -33.054688 23.59375 -35.550781 24.617188 -37.59375 C 26.34375 -40.921875 28.644531 -45.523438 28.261719 -49.421875 L 28.261719 -49.742188 L 28.195312 -49.808594 C 27.8125 -52.300781 25.511719 -55.242188 22.699219 -54.347656 C 21.226562 -53.898438 20.140625 -52.363281 19.246094 -51.277344 L 17.773438 -49.296875 C 17.453125 -48.914062 17.007812 -47.953125 16.6875 -47.441406 L 16.75 -47.503906 L 14.707031 -43.988281 L 15.21875 -45.074219 C 14.898438 -45.140625 13.492188 -42.390625 13.300781 -42.070312 C 12.59375 -40.855469 11.957031 -39.640625 11.382812 -38.425781 C 10.101562 -35.867188 8.824219 -33.246094 7.992188 -30.5 C 7.097656 -27.75 6.074219 -25.0625 5.113281 -22.3125 C 4.601562 -20.84375 4.09375 -19.308594 3.644531 -17.839844 C 3.261719 -16.625 2.367188 -14.640625 2.558594 -13.363281 L 2.75 -13.363281 C 2.558594 -12.914062 2.429688 -12.46875 2.300781 -12.019531 C 2.367188 -12.402344 2.367188 -12.851562 2.429688 -12.980469 C 2.109375 -12.53125 2.175781 -10.996094 2.109375 -10.871094 C 1.277344 -7.417969 0.320312 -3.964844 0.0625 -0.382812 C -0.128906 3.003906 -0.128906 7.480469 2.558594 9.972656 C 5.5625 12.722656 9.015625 10.871094 11.507812 8.503906 C 14.449219 5.625 16.945312 2.238281 19.246094 -1.085938 C 21.355469 -4.15625 23.015625 -7.417969 24.9375 -10.484375 C 25.703125 -11.765625 26.535156 -13.042969 26.917969 -14.449219 C 27.171875 -15.472656 27.046875 -17.839844 25.574219 -16.304688 Z M 17.582031 -39.195312 C 18.863281 -42.261719 20.140625 -45.394531 21.929688 -48.273438 C 22.378906 -48.976562 25.253906 -52.8125 25.128906 -49.421875 L 25.128906 -49.359375 C 25 -45.777344 22.699219 -42.007812 21.164062 -38.9375 L 18.476562 -33.949219 C 17.582031 -32.417969 16.046875 -30.5 15.535156 -28.835938 C 15.921875 -29.859375 17.070312 -31.328125 17.648438 -32.289062 C 18.605469 -33.886719 19.4375 -35.484375 20.332031 -37.082031 C 21.800781 -39.898438 23.402344 -42.839844 24.488281 -45.90625 C 21.609375 -37.339844 16.238281 -29.347656 11.507812 -21.738281 C 13.363281 -27.367188 15.21875 -33.503906 17.582031 -39.195312 Z M 15.535156 -43.667969 C 16.175781 -44.882812 17.328125 -45.90625 17.964844 -47.058594 C 16.625 -44.371094 14.960938 -41.941406 13.554688 -39.386719 C 13.554688 -39.449219 13.554688 -39.578125 13.617188 -39.640625 C 14.195312 -41.046875 14.832031 -42.328125 15.535156 -43.667969 Z M 3.453125 -10.613281 C 3.390625 -10.484375 3.390625 -10.421875 3.390625 -10.421875 C 2.621094 -8.632812 2.558594 -6.203125 2.175781 -4.285156 C 2.109375 -3.835938 1.980469 -3.453125 1.980469 -3.003906 L 1.980469 -3.195312 L 1.789062 -1.152344 C 1.917969 -3.453125 2.175781 -5.816406 2.621094 -8.054688 L 2.621094 -7.992188 C 2.8125 -9.460938 3.132812 -10.804688 3.390625 -10.804688 C 3.515625 -10.871094 3.515625 -10.675781 3.453125 -10.613281 Z M 3.453125 -10.613281 "/></g></g></g><g fill="#ffffff" fill-opacity="1"><g transform="translate(270.450474, 199.868965)"><g><path d="M 33.824219 -15.472656 C 33.757812 -16.625 32.929688 -16.304688 32.351562 -15.792969 C 32.03125 -15.472656 27.875 -10.871094 28.070312 -10.550781 C 28.195312 -10.550781 28.386719 -10.550781 28.515625 -10.675781 C 27.300781 -9.460938 25.382812 -8.3125 23.914062 -7.226562 C 22.441406 -6.074219 20.78125 -3.964844 18.734375 -3.835938 C 18.542969 -3.835938 18.351562 -3.773438 18.09375 -3.835938 C 17.199219 -3.964844 15.023438 -7.863281 14.832031 -8.695312 C 14.898438 -8.054688 16.367188 -5.179688 16.75 -4.539062 C 15.28125 -6.203125 14.515625 -8.695312 14.128906 -10.933594 C 14.195312 -10.742188 14.320312 -10.550781 14.386719 -10.550781 C 14.578125 -10.613281 14.320312 -11.890625 14.320312 -11.957031 C 14.449219 -12.085938 15.410156 -12.339844 15.664062 -12.46875 C 17.070312 -13.042969 18.414062 -13.746094 19.757812 -14.515625 C 22.25 -15.855469 24.742188 -17.453125 26.789062 -19.4375 C 29.027344 -21.675781 30.945312 -24.808594 28.003906 -27.367188 C 25.0625 -29.859375 20.90625 -26.535156 18.667969 -24.550781 C 16.496094 -22.632812 14.640625 -20.394531 12.914062 -18.09375 C 12.148438 -16.945312 11.316406 -15.855469 10.613281 -14.707031 C 10.167969 -14.066406 8.757812 -12.46875 8.886719 -11.699219 C 8.886719 -11.699219 10.101562 -13.171875 10.167969 -13.234375 C 9.71875 -12.59375 9.269531 -11.890625 8.886719 -11.1875 C 8.886719 -11.253906 7.863281 -9.847656 7.738281 -9.589844 L 6.011719 -6.585938 C 6.714844 -9.589844 7.542969 -12.59375 8.441406 -15.601562 C 8.886719 -17.136719 9.269531 -18.03125 10.292969 -19.246094 C 11.1875 -20.332031 12.085938 -21.417969 12.914062 -22.507812 C 14.832031 -24.9375 16.558594 -27.558594 18.285156 -30.179688 C 19.566406 -32.097656 20.523438 -34.589844 21.996094 -36.1875 C 23.785156 -38.296875 25.320312 -41.113281 26.214844 -43.796875 C 26.726562 -45.269531 26.535156 -46.484375 25.832031 -47.953125 C 24.488281 -50.574219 21.800781 -52.941406 18.863281 -51.597656 C 16.433594 -50.511719 14.707031 -48.015625 13.425781 -45.777344 C 12.59375 -44.371094 11.828125 -42.902344 11.1875 -41.367188 L 9.910156 -38.683594 C 9.71875 -38.171875 9.527344 -37.339844 9.335938 -36.890625 C 9.335938 -36.828125 9.269531 -36.765625 9.269531 -36.765625 C 8.757812 -35.484375 8.375 -34.269531 7.929688 -32.992188 C 7.863281 -33.054688 8.246094 -34.269531 8.246094 -34.269531 C 7.929688 -34.269531 6.90625 -31.203125 6.777344 -30.816406 C 6.203125 -29.285156 5.691406 -27.75 5.179688 -26.152344 C 4.21875 -23.273438 3.453125 -20.332031 2.878906 -17.328125 C 2.367188 -14.066406 1.40625 -10.871094 0.703125 -7.671875 C 0.449219 -6.265625 0 -4.859375 0 -3.453125 C 0 -2.683594 0.128906 -1.855469 0.574219 -1.214844 C 0.703125 -1.085938 1.789062 -0.191406 1.789062 -0.253906 C 1.789062 -0.253906 1.726562 -0.320312 1.726562 -0.382812 C 2.046875 -0.128906 2.683594 0.0625 3.195312 0.128906 C 2.75 0.128906 2.175781 0.0625 2.046875 -0.128906 C 2.492188 0.511719 4.21875 0.0625 4.347656 0.0625 C 5.816406 -0.253906 6.136719 -2.300781 6.90625 -3.453125 L 9.972656 -8.566406 C 10.230469 -7.226562 10.742188 -5.691406 11.382812 -4.539062 C 11.507812 -4.21875 13.363281 -1.664062 13.492188 -1.789062 C 13.492188 -1.855469 13.425781 -1.980469 13.425781 -2.046875 C 13.683594 -1.726562 13.9375 -1.46875 14.257812 -1.277344 C 14.195312 -1.214844 14.003906 -1.46875 13.9375 -1.34375 C 13.554688 -0.765625 16.304688 0.191406 16.75 0.191406 C 17.648438 0.128906 18.414062 -0.511719 19.246094 -0.832031 C 19.949219 -1.152344 20.652344 -1.40625 21.292969 -1.917969 C 22.058594 -2.558594 21.226562 -2.175781 21.738281 -2.558594 L 21.738281 -2.429688 C 21.929688 -2.683594 24.808594 -4.285156 24.9375 -4.410156 C 26.40625 -5.5 27.558594 -6.96875 28.835938 -8.3125 C 29.921875 -9.398438 30.816406 -10.613281 31.714844 -11.765625 C 32.671875 -12.851562 33.949219 -13.746094 33.824219 -15.410156 Z M 19.949219 -46.675781 C 20.585938 -47.570312 22.441406 -49.808594 23.59375 -48.273438 C 24.742188 -46.738281 22.761719 -43.09375 22.058594 -41.625 C 21.097656 -39.449219 19.882812 -37.339844 18.667969 -35.292969 L 16.945312 -32.480469 C 16.304688 -31.519531 15.472656 -30.625 15.089844 -29.667969 C 15.34375 -30.113281 15.855469 -30.691406 16.175781 -31.074219 L 17.582031 -33.3125 C 18.667969 -35.039062 19.691406 -36.765625 20.652344 -38.554688 C 21.164062 -39.386719 21.675781 -40.34375 22.25 -41.367188 C 21.609375 -40.023438 20.90625 -38.746094 20.203125 -37.46875 C 17.390625 -32.351562 14.128906 -27.558594 10.613281 -22.953125 C 11.765625 -27.109375 12.980469 -31.265625 14.515625 -35.359375 C 15.984375 -39.195312 17.453125 -43.351562 19.949219 -46.675781 Z M 13.554688 -13.746094 C 15.664062 -16.6875 17.839844 -19.566406 20.332031 -22.1875 C 20.90625 -22.824219 24.105469 -26.46875 25.191406 -25.703125 C 26.214844 -24.9375 22.570312 -20.78125 22.058594 -20.203125 C 19.691406 -17.648438 16.816406 -15.023438 13.554688 -13.746094 Z M 13.9375 -36.699219 C 14.707031 -38.554688 15.410156 -40.472656 16.304688 -42.390625 C 16.367188 -42.644531 17.007812 -43.476562 17.328125 -44.054688 C 17.007812 -43.222656 16.046875 -41.816406 15.921875 -41.429688 C 14.898438 -38.808594 14.128906 -36.125 13.234375 -33.4375 C 12.210938 -30.242188 11.1875 -27.171875 10.359375 -23.976562 L 10.484375 -24.488281 L 10.421875 -24.425781 C 10.421875 -24.488281 10.484375 -24.488281 10.484375 -24.550781 C 11.316406 -28.578125 12.339844 -32.863281 13.9375 -36.699219 Z M 9.335938 -36.890625 L 9.269531 -36.828125 C 9.335938 -36.828125 9.335938 -36.890625 9.335938 -36.890625 Z M 9.269531 -36.765625 L 9.269531 -36.828125 Z M 9.269531 -36.765625 "/></g></g></g></svg>